<?xml version="1.0" encoding="UTF-8" standalone="no"?>
<!DOCTYPE svg PUBLIC "-//W3C//DTD SVG 1.1//EN"
 "http://www.w3.org/Graphics/SVG/1.1/DTD/svg11.dtd">
<!-- Generated by graphviz version 2.49.1 (20211004.0028)
 -->
<!-- Pages: 1 -->
<svg width="518pt" height="558pt"
 viewBox="0.00 0.00 518.00 558.00" xmlns="http://www.w3.org/2000/svg" xmlns:xlink="http://www.w3.org/1999/xlink">
<g id="graph0" class="graph" transform="scale(1 1) rotate(0) translate(4 554)">
<polygon fill="white" stroke="transparent" points="-4,4 -4,-554 514,-554 514,4 -4,4"/>
<g id="clust1" class="cluster">
<title>cluster3</title>
<path fill="none" stroke="black" d="M20,-450C20,-450 258,-450 258,-450 264,-450 270,-456 270,-462 270,-462 270,-530 270,-530 270,-536 264,-542 258,-542 258,-542 20,-542 20,-542 14,-542 8,-536 8,-530 8,-530 8,-462 8,-462 8,-456 14,-450 20,-450"/>
<text text-anchor="middle" x="257" y="-457.8" font-family="Times,serif" font-size="14.00">3</text>
</g>
<g id="clust2" class="cluster">
<title>cluster2 x 3</title>
<path fill="none" stroke="black" d="M237,-350C237,-350 361,-350 361,-350 367,-350 373,-356 373,-362 373,-362 373,-430 373,-430 373,-436 367,-442 361,-442 361,-442 237,-442 237,-442 231,-442 225,-436 225,-430 225,-430 225,-362 225,-362 225,-356 231,-350 237,-350"/>
<text text-anchor="middle" x="347" y="-357.8" font-family="Times,serif" font-size="14.00">2 x 3</text>
</g>
<g id="clust3" class="cluster">
<title>cluster4</title>
<path fill="none" stroke="black" d="M20,-350C20,-350 126,-350 126,-350 132,-350 138,-356 138,-362 138,-362 138,-430 138,-430 138,-436 132,-442 126,-442 126,-442 20,-442 20,-442 14,-442 8,-436 8,-430 8,-430 8,-362 8,-362 8,-356 14,-350 20,-350"/>
<text text-anchor="middle" x="125" y="-357.8" font-family="Times,serif" font-size="14.00">4</text>
</g>
<g id="clust4" class="cluster">
<title>cluster2</title>
<path fill="none" stroke="black" d="M158,-250C158,-250 428,-250 428,-250 434,-250 440,-256 440,-262 440,-262 440,-330 440,-330 440,-336 434,-342 428,-342 428,-342 158,-342 158,-342 152,-342 146,-336 146,-330 146,-330 146,-262 146,-262 146,-256 152,-250 158,-250"/>
<text text-anchor="middle" x="427" y="-257.8" font-family="Times,serif" font-size="14.00">2</text>
</g>
<g id="clust5" class="cluster">
<title>cluster2 x 4</title>
<path fill="none" stroke="black" d="M20,-250C20,-250 126,-250 126,-250 132,-250 138,-256 138,-262 138,-262 138,-330 138,-330 138,-336 132,-342 126,-342 126,-342 20,-342 20,-342 14,-342 8,-336 8,-330 8,-330 8,-262 8,-262 8,-256 14,-250 20,-250"/>
<text text-anchor="middle" x="112" y="-257.8" font-family="Times,serif" font-size="14.00">2 x 4</text>
</g>
<g id="clust6" class="cluster">
<title>cluster4 x 2</title>
<path fill="none" stroke="black" d="M158,-61C158,-61 396,-61 396,-61 402,-61 408,-67 408,-73 408,-73 408,-230 408,-230 408,-236 402,-242 396,-242 396,-242 158,-242 158,-242 152,-242 146,-236 146,-230 146,-230 146,-73 146,-73 146,-67 152,-61 158,-61"/>
<text text-anchor="middle" x="382" y="-68.8" font-family="Times,serif" font-size="14.00">4 x 2</text>
</g>
<!-- gestures -->
<g id="node1" class="node">
<title>gestures</title>
<polygon fill="none" stroke="black" points="130,-534 16,-534 16,-481 130,-481 130,-534"/>
<text text-anchor="middle" x="73" y="-518.8" font-family="Times,serif" font-size="14.00">gestures</text>
<text text-anchor="middle" x="73" y="-503.8" font-family="Times,serif" font-size="14.00">~</text>
<text text-anchor="middle" x="73" y="-488.8" font-family="Times,serif" font-size="14.00">Deterministic</text>
</g>
<!-- actions -->
<g id="node8" class="node">
<title>actions</title>
<polygon fill="none" stroke="black" points="130,-434 16,-434 16,-381 130,-381 130,-434"/>
<text text-anchor="middle" x="73" y="-418.8" font-family="Times,serif" font-size="14.00">actions</text>
<text text-anchor="middle" x="73" y="-403.8" font-family="Times,serif" font-size="14.00">~</text>
<text text-anchor="middle" x="73" y="-388.8" font-family="Times,serif" font-size="14.00">Deterministic</text>
</g>
<!-- gestures&#45;&gt;actions -->
<g id="edge1" class="edge">
<title>gestures&#45;&gt;actions</title>
<path fill="none" stroke="black" d="M73,-480.75C73,-469.61 73,-456.38 73,-444.31"/>
<polygon fill="black" stroke="black" points="76.5,-444.08 73,-434.08 69.5,-444.08 76.5,-444.08"/>
</g>
<!-- eef_position -->
<g id="node2" class="node">
<title>eef_position</title>
<polygon fill="none" stroke="black" points="262,-534 148,-534 148,-481 262,-481 262,-534"/>
<text text-anchor="middle" x="205" y="-518.8" font-family="Times,serif" font-size="14.00">eef_position</text>
<text text-anchor="middle" x="205" y="-503.8" font-family="Times,serif" font-size="14.00">~</text>
<text text-anchor="middle" x="205" y="-488.8" font-family="Times,serif" font-size="14.00">Deterministic</text>
</g>
<!-- eeff -->
<g id="node10" class="node">
<title>eeff</title>
<polygon fill="none" stroke="black" points="268,-334 154,-334 154,-281 268,-281 268,-334"/>
<text text-anchor="middle" x="211" y="-318.8" font-family="Times,serif" font-size="14.00">eeff</text>
<text text-anchor="middle" x="211" y="-303.8" font-family="Times,serif" font-size="14.00">~</text>
<text text-anchor="middle" x="211" y="-288.8" font-family="Times,serif" font-size="14.00">Deterministic</text>
</g>
<!-- eef_position&#45;&gt;eeff -->
<g id="edge3" class="edge">
<title>eef_position&#45;&gt;eeff</title>
<path fill="none" stroke="black" d="M205.78,-480.61C206.84,-445.76 208.72,-383.58 209.92,-344.27"/>
<polygon fill="black" stroke="black" points="213.42,-344.18 210.22,-334.08 206.42,-343.97 213.42,-344.18"/>
</g>
<!-- target_object -->
<g id="node3" class="node">
<title>target_object</title>
<polygon fill="none" stroke="black" points="268,-53 154,-53 154,0 268,0 268,-53"/>
<text text-anchor="middle" x="211" y="-37.8" font-family="Times,serif" font-size="14.00">target_object</text>
<text text-anchor="middle" x="211" y="-22.8" font-family="Times,serif" font-size="14.00">~</text>
<text text-anchor="middle" x="211" y="-7.8" font-family="Times,serif" font-size="14.00">Deterministic</text>
</g>
<!-- test -->
<g id="node4" class="node">
<title>test</title>
<ellipse fill="none" stroke="black" cx="329" cy="-507.5" rx="49.49" ry="37.45"/>
<text text-anchor="middle" x="329" y="-518.8" font-family="Times,serif" font-size="14.00">test</text>
<text text-anchor="middle" x="329" y="-503.8" font-family="Times,serif" font-size="14.00">~</text>
<text text-anchor="middle" x="329" y="-488.8" font-family="Times,serif" font-size="14.00">Normal</text>
</g>
<!-- target_action -->
<g id="node5" class="node">
<title>target_action</title>
<polygon fill="none" stroke="black" points="400,-53 286,-53 286,0 400,0 400,-53"/>
<text text-anchor="middle" x="343" y="-37.8" font-family="Times,serif" font-size="14.00">target_action</text>
<text text-anchor="middle" x="343" y="-22.8" font-family="Times,serif" font-size="14.00">~</text>
<text text-anchor="middle" x="343" y="-7.8" font-family="Times,serif" font-size="14.00">Deterministic</text>
</g>
<!-- gripper_full -->
<g id="node6" class="node">
<title>gripper_full</title>
<polygon fill="none" stroke="black" points="510,-534 396,-534 396,-481 510,-481 510,-534"/>
<text text-anchor="middle" x="453" y="-518.8" font-family="Times,serif" font-size="14.00">gripper_full</text>
<text text-anchor="middle" x="453" y="-503.8" font-family="Times,serif" font-size="14.00">~</text>
<text text-anchor="middle" x="453" y="-488.8" font-family="Times,serif" font-size="14.00">Deterministic</text>
</g>
<!-- object_positions -->
<g id="node7" class="node">
<title>object_positions</title>
<polygon fill="none" stroke="black" points="364.5,-434 233.5,-434 233.5,-381 364.5,-381 364.5,-434"/>
<text text-anchor="middle" x="299" y="-418.8" font-family="Times,serif" font-size="14.00">object_positions</text>
<text text-anchor="middle" x="299" y="-403.8" font-family="Times,serif" font-size="14.00">~</text>
<text text-anchor="middle" x="299" y="-388.8" font-family="Times,serif" font-size="14.00">Deterministic</text>
</g>
<!-- object_positions&#45;&gt;eeff -->
<g id="edge2" class="edge">
<title>object_positions&#45;&gt;eeff</title>
<path fill="none" stroke="black" d="M275.88,-380.75C265.17,-368.82 252.31,-354.5 240.87,-341.77"/>
<polygon fill="black" stroke="black" points="243.25,-339.18 233.97,-334.08 238.04,-343.86 243.25,-339.18"/>
</g>
<!-- actions_1 -->
<g id="node11" class="node">
<title>actions_1</title>
<polygon fill="none" stroke="black" points="130,-334 16,-334 16,-281 130,-281 130,-334"/>
<text text-anchor="middle" x="73" y="-318.8" font-family="Times,serif" font-size="14.00">actions_1</text>
<text text-anchor="middle" x="73" y="-303.8" font-family="Times,serif" font-size="14.00">~</text>
<text text-anchor="middle" x="73" y="-288.8" font-family="Times,serif" font-size="14.00">Deterministic</text>
</g>
<!-- actions&#45;&gt;actions_1 -->
<g id="edge4" class="edge">
<title>actions&#45;&gt;actions_1</title>
<path fill="none" stroke="black" d="M73,-380.75C73,-369.61 73,-356.38 73,-344.31"/>
<polygon fill="black" stroke="black" points="76.5,-344.08 73,-334.08 69.5,-344.08 76.5,-344.08"/>
</g>
<!-- graspable_by_size -->
<g id="node9" class="node">
<title>graspable_by_size</title>
<polygon fill="none" stroke="black" points="432,-334 286,-334 286,-281 432,-281 432,-334"/>
<text text-anchor="middle" x="359" y="-318.8" font-family="Times,serif" font-size="14.00">graspable_by_size</text>
<text text-anchor="middle" x="359" y="-303.8" font-family="Times,serif" font-size="14.00">~</text>
<text text-anchor="middle" x="359" y="-288.8" font-family="Times,serif" font-size="14.00">Deterministic</text>
</g>
<!-- intent_misc -->
<g id="node14" class="node">
<title>intent_misc</title>
<polygon fill="none" stroke="black" points="400,-234 286,-234 286,-181 400,-181 400,-234"/>
<text text-anchor="middle" x="343" y="-218.8" font-family="Times,serif" font-size="14.00">intent_misc</text>
<text text-anchor="middle" x="343" y="-203.8" font-family="Times,serif" font-size="14.00">~</text>
<text text-anchor="middle" x="343" y="-188.8" font-family="Times,serif" font-size="14.00">Deterministic</text>
</g>
<!-- graspable_by_size&#45;&gt;intent_misc -->
<g id="edge7" class="edge">
<title>graspable_by_size&#45;&gt;intent_misc</title>
<path fill="none" stroke="black" d="M354.8,-280.75C352.98,-269.61 350.82,-256.38 348.85,-244.31"/>
<polygon fill="black" stroke="black" points="352.24,-243.38 347.18,-234.08 345.33,-244.51 352.24,-243.38"/>
</g>
<!-- actions_2 -->
<g id="node12" class="node">
<title>actions_2</title>
<polygon fill="none" stroke="black" points="268,-234 154,-234 154,-181 268,-181 268,-234"/>
<text text-anchor="middle" x="211" y="-218.8" font-family="Times,serif" font-size="14.00">actions_2</text>
<text text-anchor="middle" x="211" y="-203.8" font-family="Times,serif" font-size="14.00">~</text>
<text text-anchor="middle" x="211" y="-188.8" font-family="Times,serif" font-size="14.00">Deterministic</text>
</g>
<!-- eeff&#45;&gt;actions_2 -->
<g id="edge5" class="edge">
<title>eeff&#45;&gt;actions_2</title>
<path fill="none" stroke="black" d="M211,-280.75C211,-269.61 211,-256.38 211,-244.31"/>
<polygon fill="black" stroke="black" points="214.5,-244.08 211,-234.08 207.5,-244.08 214.5,-244.08"/>
</g>
<!-- actions_1&#45;&gt;actions_2 -->
<g id="edge6" class="edge">
<title>actions_1&#45;&gt;actions_2</title>
<path fill="none" stroke="black" d="M102.49,-280.77C114.45,-270.76 128.58,-259.45 142,-250 147.02,-246.46 152.36,-242.91 157.75,-239.46"/>
<polygon fill="black" stroke="black" points="159.62,-242.42 166.22,-234.14 155.89,-236.49 159.62,-242.42"/>
</g>
<!-- actions_3 -->
<g id="node13" class="node">
<title>actions_3</title>
<polygon fill="none" stroke="black" points="334,-145 220,-145 220,-92 334,-92 334,-145"/>
<text text-anchor="middle" x="277" y="-129.8" font-family="Times,serif" font-size="14.00">actions_3</text>
<text text-anchor="middle" x="277" y="-114.8" font-family="Times,serif" font-size="14.00">~</text>
<text text-anchor="middle" x="277" y="-99.8" font-family="Times,serif" font-size="14.00">Deterministic</text>
</g>
<!-- actions_2&#45;&gt;actions_3 -->
<g id="edge8" class="edge">
<title>actions_2&#45;&gt;actions_3</title>
<path fill="none" stroke="black" d="M230.45,-180.87C236.97,-172.27 244.34,-162.55 251.27,-153.42"/>
<polygon fill="black" stroke="black" points="254.21,-155.33 257.47,-145.25 248.63,-151.1 254.21,-155.33"/>
</g>
<!-- actions_3&#45;&gt;target_object -->
<g id="edge11" class="edge">
<title>actions_3&#45;&gt;target_object</title>
<path fill="none" stroke="black" d="M258.26,-91.95C251.3,-82.45 243.28,-71.52 235.85,-61.39"/>
<polygon fill="black" stroke="black" points="238.52,-59.11 229.78,-53.11 232.87,-63.25 238.52,-59.11"/>
</g>
<!-- actions_3&#45;&gt;target_action -->
<g id="edge10" class="edge">
<title>actions_3&#45;&gt;target_action</title>
<path fill="none" stroke="black" d="M295.74,-91.95C302.7,-82.45 310.72,-71.52 318.15,-61.39"/>
<polygon fill="black" stroke="black" points="321.13,-63.25 324.22,-53.11 315.48,-59.11 321.13,-63.25"/>
</g>
<!-- intent_misc&#45;&gt;actions_3 -->
<g id="edge9" class="edge">
<title>intent_misc&#45;&gt;actions_3</title>
<path fill="none" stroke="black" d="M323.55,-180.87C317.03,-172.27 309.66,-162.55 302.73,-153.42"/>
<polygon fill="black" stroke="black" points="305.37,-151.1 296.53,-145.25 299.79,-155.33 305.37,-151.1"/>
</g>
</g>
</svg>
