<?xml version="1.0" encoding="UTF-8" standalone="no"?>
<!DOCTYPE svg PUBLIC "-//W3C//DTD SVG 1.1//EN"
 "http://www.w3.org/Graphics/SVG/1.1/DTD/svg11.dtd">
<!-- Generated by graphviz version 2.49.1 (20211004.0028)
 -->
<!-- Pages: 1 -->
<svg width="1040pt" height="194pt"
 viewBox="0.00 0.00 1040.02 193.91" xmlns="http://www.w3.org/2000/svg" xmlns:xlink="http://www.w3.org/1999/xlink">
<g id="graph0" class="graph" transform="scale(1 1) rotate(0) translate(4 189.91)">
<polygon fill="white" stroke="transparent" points="-4,4 -4,-189.91 1036.02,-189.91 1036.02,4 -4,4"/>
<!-- misc_features -->
<g id="node1" class="node">
<title>misc_features</title>
<ellipse fill="none" stroke="black" cx="491.3" cy="-37.48" rx="82.05" ry="37.45"/>
<text text-anchor="middle" x="491.3" y="-48.78" font-family="Times,serif" font-size="14.00">misc_features</text>
<text text-anchor="middle" x="491.3" y="-33.78" font-family="Times,serif" font-size="14.00">~</text>
<text text-anchor="middle" x="491.3" y="-18.78" font-family="Times,serif" font-size="14.00">Categorical</text>
</g>
<!-- gesture_object_focus -->
<g id="node2" class="node">
<title>gesture_object_focus</title>
<ellipse fill="none" stroke="black" cx="274.3" cy="-37.48" rx="117.26" ry="37.45"/>
<text text-anchor="middle" x="274.3" y="-48.78" font-family="Times,serif" font-size="14.00">gesture_object_focus</text>
<text text-anchor="middle" x="274.3" y="-33.78" font-family="Times,serif" font-size="14.00">~</text>
<text text-anchor="middle" x="274.3" y="-18.78" font-family="Times,serif" font-size="14.00">Categorical</text>
</g>
<!-- object_intent -->
<g id="node3" class="node">
<title>object_intent</title>
<ellipse fill="none" stroke="black" cx="274.3" cy="-148.43" rx="77.56" ry="37.45"/>
<text text-anchor="middle" x="274.3" y="-159.73" font-family="Times,serif" font-size="14.00">object_intent</text>
<text text-anchor="middle" x="274.3" y="-144.73" font-family="Times,serif" font-size="14.00">~</text>
<text text-anchor="middle" x="274.3" y="-129.73" font-family="Times,serif" font-size="14.00">Categorical</text>
</g>
<!-- object_intent&#45;&gt;misc_features -->
<g id="edge2" class="edge">
<title>object_intent&#45;&gt;misc_features</title>
<path fill="none" stroke="black" d="M327.38,-120.78C357.64,-105.58 395.77,-86.44 427.63,-70.44"/>
<polygon fill="black" stroke="black" points="429.51,-73.42 436.87,-65.8 426.37,-67.16 429.51,-73.42"/>
</g>
<!-- object_intent&#45;&gt;gesture_object_focus -->
<g id="edge5" class="edge">
<title>object_intent&#45;&gt;gesture_object_focus</title>
<path fill="none" stroke="black" d="M274.3,-110.85C274.3,-102.67 274.3,-93.89 274.3,-85.37"/>
<polygon fill="black" stroke="black" points="277.8,-85.15 274.3,-75.15 270.8,-85.15 277.8,-85.15"/>
</g>
<!-- eeff -->
<g id="node5" class="node">
<title>eeff</title>
<ellipse fill="none" stroke="black" cx="69.3" cy="-37.48" rx="69.09" ry="37.45"/>
<text text-anchor="middle" x="69.3" y="-48.78" font-family="Times,serif" font-size="14.00">eeff</text>
<text text-anchor="middle" x="69.3" y="-33.78" font-family="Times,serif" font-size="14.00">~</text>
<text text-anchor="middle" x="69.3" y="-18.78" font-family="Times,serif" font-size="14.00">Categorical</text>
</g>
<!-- object_intent&#45;&gt;eeff -->
<g id="edge7" class="edge">
<title>object_intent&#45;&gt;eeff</title>
<path fill="none" stroke="black" d="M223.1,-120.22C193.97,-104.74 157.4,-85.3 127.23,-69.26"/>
<polygon fill="black" stroke="black" points="128.56,-66.01 118.08,-64.41 125.27,-72.19 128.56,-66.01"/>
</g>
<!-- intent -->
<g id="node4" class="node">
<title>intent</title>
<ellipse fill="none" stroke="black" cx="591.3" cy="-148.43" rx="69.09" ry="37.45"/>
<text text-anchor="middle" x="591.3" y="-159.73" font-family="Times,serif" font-size="14.00">intent</text>
<text text-anchor="middle" x="591.3" y="-144.73" font-family="Times,serif" font-size="14.00">~</text>
<text text-anchor="middle" x="591.3" y="-129.73" font-family="Times,serif" font-size="14.00">Categorical</text>
</g>
<!-- intent&#45;&gt;misc_features -->
<g id="edge3" class="edge">
<title>intent&#45;&gt;misc_features</title>
<path fill="none" stroke="black" d="M561.02,-114.44C551.02,-103.55 539.77,-91.3 529.28,-79.86"/>
<polygon fill="black" stroke="black" points="531.85,-77.48 522.51,-72.48 526.69,-82.22 531.85,-77.48"/>
</g>
<!-- intent&#45;&gt;gesture_object_focus -->
<g id="edge6" class="edge">
<title>intent&#45;&gt;gesture_object_focus</title>
<path fill="none" stroke="black" d="M533.52,-127.57C485.76,-111.16 417.17,-87.58 362.54,-68.8"/>
<polygon fill="black" stroke="black" points="363.45,-65.42 352.85,-65.48 361.17,-72.04 363.45,-65.42"/>
</g>
<!-- parameter_distance -->
<g id="node6" class="node">
<title>parameter_distance</title>
<ellipse fill="none" stroke="black" cx="920.3" cy="-37.48" rx="111.95" ry="37.45"/>
<text text-anchor="middle" x="920.3" y="-48.78" font-family="Times,serif" font-size="14.00">parameter_distance</text>
<text text-anchor="middle" x="920.3" y="-33.78" font-family="Times,serif" font-size="14.00">~</text>
<text text-anchor="middle" x="920.3" y="-18.78" font-family="Times,serif" font-size="14.00">Categorical</text>
</g>
<!-- intent&#45;&gt;parameter_distance -->
<g id="edge4" class="edge">
<title>intent&#45;&gt;parameter_distance</title>
<path fill="none" stroke="black" d="M649.74,-128.08C700.46,-111.28 774.64,-86.71 832.5,-67.55"/>
<polygon fill="black" stroke="black" points="833.62,-70.87 842.01,-64.4 831.42,-64.22 833.62,-70.87"/>
</g>
<!-- gesture_id_intent -->
<g id="node7" class="node">
<title>gesture_id_intent</title>
<ellipse fill="none" stroke="black" cx="691.3" cy="-37.48" rx="99.9" ry="37.45"/>
<text text-anchor="middle" x="691.3" y="-48.78" font-family="Times,serif" font-size="14.00">gesture_id_intent</text>
<text text-anchor="middle" x="691.3" y="-33.78" font-family="Times,serif" font-size="14.00">~</text>
<text text-anchor="middle" x="691.3" y="-18.78" font-family="Times,serif" font-size="14.00">Categorical</text>
</g>
<!-- intent&#45;&gt;gesture_id_intent -->
<g id="edge1" class="edge">
<title>intent&#45;&gt;gesture_id_intent</title>
<path fill="none" stroke="black" d="M621.57,-114.44C631.29,-103.86 642.18,-91.99 652.43,-80.83"/>
<polygon fill="black" stroke="black" points="655.21,-82.97 659.39,-73.24 650.05,-78.24 655.21,-82.97"/>
</g>
</g>
</svg>
